<?xml version="1.0" encoding="utf-8"?>
<!-- Generator: Adobe Illustrator 18.0.0, SVG Export Plug-In . SVG Version: 6.00 Build 0)  -->
<!DOCTYPE svg PUBLIC "-//W3C//DTD SVG 1.1//EN" "http://www.w3.org/Graphics/SVG/1.1/DTD/svg11.dtd">
<svg version="1.1" id="Calque_1" xmlns="http://www.w3.org/2000/svg" xmlns:xlink="http://www.w3.org/1999/xlink" x="0px" y="0px"
	 viewBox="-34.8 134.5 664.9 588" enable-background="new -34.8 134.5 664.9 588" xml:space="preserve">
<path fill="#FFFFFF" d="M216.1,162.9c-9.7,0-14.6,6.3-14.6,15.7V195h7.8v23.3h-95.6c-84.6,0-97.6,60.9-97.6,88l0,304.7
	c0,14.6-16.2,24.7-16.2,24.7V679h595.3v-43.2c0,0-16.2-10.2-16.2-24.7l0.1-304.7c0-27.1-12.9-88-97.6-88H386V195h7.8v-16.4
	c0-9.5-4.9-15.7-14.7-15.7H216.1z M266.8,195h61.6c10.9,0,17.2,5.3,17.2,14.5v8.8h-96v-8.8C249.6,200.3,255.9,195,266.8,195z
	 M113.7,267.5h367.9c23.8,0,41.3,15.3,41.3,38.9v291c0,10.5-5.9,16.9-14.9,16.9H87.3c-9,0-14.9-6.3-14.9-16.9v-291
	C72.4,282.7,89.9,267.5,113.7,267.5z"/>
<path fill="#FFFFFF" d="M384.7,536.9h96.1v49.4h-96.1V536.9z"/>
<path fill="#FFFFFF" d="M384.7,514.3V386.5c0-47.3,48-104.1,48-104.1s48,56.8,48,104.1v127.8L384.7,514.3L384.7,514.3z"/>
<path fill="#FFFFFF" d="M249.1,536.9h96.1v49.4h-96.1V536.9z"/>
<path fill="#FFFFFF" d="M249.1,514.3V386.5c0-47.3,48-104.1,48-104.1s48,56.8,48,104.1v127.8L249.1,514.3L249.1,514.3z"/>
<path fill="#FFFFFF" d="M113.5,536.9h96.1v49.4h-96.1V536.9z"/>
<path fill="#FFFFFF" d="M113.5,514.3V386.5c0-47.3,48-104.1,48-104.1s48,56.8,48,104.1v127.8L113.5,514.3L113.5,514.3z"/>
</svg>
