<?xml version="1.0" encoding="utf-8"?>
<!-- Generator: Adobe Illustrator 18.0.0, SVG Export Plug-In . SVG Version: 6.00 Build 0)  -->
<!DOCTYPE svg PUBLIC "-//W3C//DTD SVG 1.1//EN" "http://www.w3.org/Graphics/SVG/1.1/DTD/svg11.dtd">
<svg version="1.1" id="Calque_1" xmlns="http://www.w3.org/2000/svg" xmlns:xlink="http://www.w3.org/1999/xlink" x="0px" y="0px"
	 viewBox="0 0 595.3 660.9" enable-background="new 0 0 595.3 660.9" xml:space="preserve">
<path fill="#FFFFFF" d="M220,98.1c-43.7,20.1-110.1,44-180.7,45.1c1.2,179.2,69.5,414.1,258.3,495.6
	C486.5,557.3,554.7,322.3,556,143.1c-70.7-1.1-137.1-25-180.7-45.1C334.7,79.4,306.5,61,297.6,55C288.8,61,260.6,79.4,220,98.1z
	 M506.3,188.8l4.7,0.7l-0.4,4.7c-4.6,51.2-16.6,127.8-47.6,202c-37.1,88.8-91.9,152.1-163.1,188.2l-2.3,1.1l-2.3-1.1
	c-71.1-36.1-126-99.4-163.1-188.2c-31-74.2-43-150.8-47.6-202l-0.4-4.7l4.7-0.7c89.8-12.7,167.6-52.9,206-75.8l2.6-1.5l2.6,1.5
	C338.6,135.9,416.5,176.1,506.3,188.8z"/>
<path fill="#FFFFFF" d="M154.8,246.1c15,87.1,52.1,201,142.8,261.1c90.7-60.1,127.7-174,142.8-261.1
	c-58.9-15.3-109.6-38.9-142.8-56.6C264.4,207.3,213.5,230.8,154.8,246.1z"/>
</svg>
