<?xml version="1.0" encoding="utf-8"?>
<!-- Generator: Adobe Illustrator 18.0.0, SVG Export Plug-In . SVG Version: 6.00 Build 0)  -->
<!DOCTYPE svg PUBLIC "-//W3C//DTD SVG 1.1//EN" "http://www.w3.org/Graphics/SVG/1.1/DTD/svg11.dtd">
<svg version="1.1" id="Calque_1" xmlns="http://www.w3.org/2000/svg" xmlns:xlink="http://www.w3.org/1999/xlink" x="0px" y="0px"
	 viewBox="95.7 140.5 403.9 412.5" enable-background="new 95.7 140.5 403.9 412.5" xml:space="preserve">
<path fill="#FFFFFF" d="M296.6,159.3c-102.6,0.6-185.7,83.6-186.2,186.2c-0.6,103.9,84.5,188.9,188.4,188.3
	c102.6-0.6,185.7-83.6,186.2-186.2C485.5,243.8,400.4,158.7,296.6,159.3z M409.6,391.4h-66.1c-0.6,0-1.1,0.5-1.1,1.1v66.1
	c0,0.6-0.5,1.1-1.1,1.1h-87.6c-0.6,0-1.1-0.5-1.1-1.1v-66.1c0-0.6-0.5-1.1-1.1-1.1h-66.1c-0.6,0-1.1-0.5-1.1-1.1v-87.6
	c0-0.6,0.5-1.1,1.1-1.1h66.1c0.6,0,1.1-0.5,1.1-1.1v-66.1c0-0.6,0.5-1.1,1.1-1.1h87.6c0.6,0,1.1,0.5,1.1,1.1v66.1
	c0,0.6,0.5,1.1,1.1,1.1h66.1c0.6,0,1.1,0.5,1.1,1.1v87.6C410.7,391,410.2,391.4,409.6,391.4z"/>
</svg>
